# xmcd CD database file
#
# Track frame offsets:
#	150
#	33300
#	54286
#	78875
#	110739
#	153570
#	191125
#	213912
#	237173
#	259280
#
# Disc length: 3838 seconds
#
# Revision: 3
# Processed by: cddbd v1.5.2PL0 Copyright (c) Steve Scherf et al.
# Submitted via: CDex 1.51
#
DISCID=830efc0a
DTITLE=John Mayall - Turning Point
DYEAR=2001
DGENRE=Blues
TTITLE0=The Laws Must Change
TTITLE1=Saw Mill Gulch Road
TTITLE2=I'm Gonna Fight For You J.B.
TTITLE3=So Hard To Share
TTITLE4=California
TTITLE5=Thoughts About Roxanne
TTITLE6=Room To Move
TTITLE7=Sleeping By Her Side
TTITLE8=Don't Waste My Time
TTITLE9=Can't Sleep This Night
EXTD=YEAR: 2001
EXTT0=
EXTT1=
EXTT2=
EXTT3=
EXTT4=
EXTT5=
EXTT6=
EXTT7=
EXTT8=
EXTT9=
PLAYORDER=
